<svg width="40" height="40" viewBox="0 0 40 40" fill="none" xmlns="http://www.w3.org/2000/svg">
<circle cx="20" cy="20" r="20" fill="white"/>
<path d="M28.579 15.175C29.3915 14.5656 30.1228 13.8343 30.6915 12.9812C29.9603 13.3062 29.1071 13.55 28.254 13.6312C29.1478 13.1031 29.7978 12.2906 30.1228 11.275C29.3103 11.7625 28.3759 12.1281 27.4415 12.3312C26.629 11.4781 25.5321 10.9906 24.3134 10.9906C21.9571 10.9906 20.0478 12.9 20.0478 15.2562C20.0478 15.5812 20.0884 15.9062 20.1696 16.2312C16.6353 16.0281 13.4665 14.3218 11.354 11.7625C10.9884 12.3718 10.7853 13.1031 10.7853 13.9156C10.7853 15.3781 11.5165 16.6781 12.6946 17.45C12.004 17.4093 11.3134 17.2468 10.7446 16.9218V16.9625C10.7446 19.0343 12.2071 20.7406 14.1571 21.1468C13.8321 21.2281 13.4259 21.3093 13.0603 21.3093C12.7759 21.3093 12.5321 21.2687 12.2478 21.2281C12.7759 22.9343 14.3603 24.1531 16.229 24.1937C14.7665 25.3312 12.9384 26.0218 10.9478 26.0218C10.5821 26.0218 10.2571 25.9812 9.93213 25.9406C11.8009 27.1593 14.0353 27.85 16.4728 27.85C24.3134 27.85 28.579 21.3906 28.579 15.7437C28.579 15.5406 28.579 15.3781 28.579 15.175Z" fill="#2A2618"/>
</svg>
