<svg width="40" height="40" viewBox="0 0 40 40" fill="none" xmlns="http://www.w3.org/2000/svg">
<circle cx="20" cy="20" r="20" fill="white"/>
<path d="M28.4014 10.3H12.7607C12.0701 10.3 11.5014 10.9093 11.5014 11.6406V27.2C11.5014 27.9312 12.0701 28.5 12.7607 28.5H28.4014C29.092 28.5 29.7014 27.9312 29.7014 27.2V11.6406C29.7014 10.9093 29.092 10.3 28.4014 10.3ZM16.9857 25.9H14.3045V17.2468H16.9857V25.9ZM15.6451 16.0281C14.7514 16.0281 14.0607 15.3375 14.0607 14.4843C14.0607 13.6312 14.7514 12.9 15.6451 12.9C16.4982 12.9 17.1889 13.6312 17.1889 14.4843C17.1889 15.3375 16.4982 16.0281 15.6451 16.0281ZM27.1014 25.9H24.3795V21.675C24.3795 20.7 24.3795 19.4 22.9982 19.4C21.5764 19.4 21.3732 20.4968 21.3732 21.6343V25.9H18.692V17.2468H21.2514V18.425H21.292C21.6576 17.7343 22.5514 17.0031 23.8514 17.0031C26.5732 17.0031 27.1014 18.8312 27.1014 21.1468V25.9Z" fill="#2A2618"/>
</svg>
