<svg width="40" height="40" viewBox="0 0 40 40" fill="none" xmlns="http://www.w3.org/2000/svg">
<circle cx="20" cy="20" r="20" fill="white"/>
<path d="M30.3093 14.0781C30.0655 13.1031 29.2936 12.3312 28.3593 12.0875C26.6124 11.6 19.7061 11.6 19.7061 11.6C19.7061 11.6 12.7593 11.6 11.0124 12.0875C10.078 12.3312 9.30615 13.1031 9.0624 14.0781C8.5749 15.7843 8.5749 19.4406 8.5749 19.4406C8.5749 19.4406 8.5749 23.0562 9.0624 24.8031C9.30615 25.7781 10.078 26.5093 11.0124 26.7531C12.7593 27.2 19.7061 27.2 19.7061 27.2C19.7061 27.2 26.6124 27.2 28.3593 26.7531C29.2936 26.5093 30.0655 25.7781 30.3093 24.8031C30.7968 23.0562 30.7968 19.4406 30.7968 19.4406C30.7968 19.4406 30.7968 15.7843 30.3093 14.0781ZM17.4311 22.7312V16.15L23.1999 19.4406L17.4311 22.7312Z" fill="#FF592C"/>
</svg>
