<svg width="193" height="60" viewBox="0 0 193 60" fill="none" xmlns="http://www.w3.org/2000/svg">
<path d="M88.2838 23.6961C88.2838 28.1075 89.883 31.3058 94.9561 35.7724C98.9264 39.2464 100.14 41.3418 100.14 44.1541C100.14 46.9112 98.9264 47.9038 96.9964 47.9038C95.0664 47.9038 93.8532 46.9112 93.8532 44.1541V41.397H88.1184V43.7681C88.1184 49.9441 91.2064 53.4732 97.1618 53.4732C103.117 53.4732 106.205 49.9441 106.205 43.7681C106.205 39.3567 104.606 36.1584 99.533 31.6918C95.5627 28.2178 94.3495 26.1224 94.3495 23.3101C94.3495 20.553 95.4524 19.5052 97.3824 19.5052C99.3124 19.5052 100.415 20.553 100.415 23.3101V24.9092H106.15V23.6961C106.15 17.5201 103.117 13.991 97.217 13.991C91.3167 13.991 88.2838 17.5201 88.2838 23.6961ZM118.614 14.4321H109.681V53.0321H115.746V38.5295H118.614C124.679 38.5295 127.657 35.1658 127.657 28.9898V23.9718C127.657 17.7958 124.679 14.4321 118.614 14.4321ZM118.614 19.9464C120.544 19.9464 121.591 20.8287 121.591 23.5858V29.3758C121.591 32.133 120.544 33.0152 118.614 33.0152H115.746V19.9464H118.614ZM143.222 14.4321H134.344L128.168 53.0321H133.737L134.785 46.029H142.229L143.277 53.0321H149.398L143.222 14.4321ZM138.424 21.2698H138.534L141.402 40.7904H135.557L138.424 21.2698ZM164.024 38.6398V44.1541C164.024 46.9112 162.811 47.9038 160.881 47.9038C158.951 47.9038 157.738 46.9112 157.738 44.1541V23.3101C157.738 20.553 158.951 19.5052 160.881 19.5052C162.811 19.5052 164.024 20.553 164.024 23.3101V27.4458H169.759V23.6961C169.759 17.5201 166.671 13.991 160.716 13.991C154.76 13.991 151.672 17.5201 151.672 23.6961V43.7681C151.672 49.9441 154.76 53.4732 160.716 53.4732C166.671 53.4732 169.759 49.9441 169.759 43.7681V38.6398H164.024ZM179.505 19.9464H189.982V14.4321H173.439V53.0321H189.982V47.5178H179.505V36.2135H187.832V30.6992H179.505V19.9464Z" fill="white"/>
<path d="M40.6907 51.026C34.2639 51.026 28.4215 48.4286 24.1736 44.232C22.4765 44.4614 20.831 44.6335 19.2483 44.7538C24.2995 51.0201 32.0338 55.0392 40.6909 55.0392C55.454 55.0392 67.5342 43.3605 68.1819 28.7582C66.8572 29.6293 65.4183 30.4952 63.8877 31.3437C62.0526 42.4948 52.352 51.026 40.6907 51.026Z" fill="white"/>
<path d="M58.0564 34.2788C53.4182 36.4173 48.218 38.3838 42.7429 40.0579C38.5976 41.3249 34.4869 42.3684 30.5481 43.1539C33.4668 45.0516 36.9465 46.1523 40.6905 46.1523C48.5965 46.1523 55.3506 41.2276 58.0564 34.2788Z" fill="white"/>
<path d="M77.4694 13.8687C76.288 10.0046 71.0823 8.02054 62.4481 8.10681C62.2819 8.10681 62.1156 8.11232 61.9437 8.11232C63.0904 9.36235 64.1278 10.7211 65.0337 12.16C70.7557 12.4237 73.2551 13.8111 73.6336 15.0436C74.0212 16.3049 72.6347 18.9578 67.7482 22.5089C65.3467 9.50974 53.7887 -0.312519 40.0379 0.00760568C25.8616 0.337556 14.1343 11.5706 13.2286 25.7217C12.9181 30.5709 13.8739 35.1745 15.7974 39.2359C15.6066 39.2401 15.4117 39.2477 15.2236 39.2497C7.69034 39.3415 4.50796 37.7245 4.07799 36.3257C3.52204 34.5024 6.28565 31.2002 11.8867 27.5481V27.5196C11.8867 25.8168 12.0357 24.1541 12.3224 22.5317C4.0153 27.3705 -1.2134 32.754 0.242781 37.5013C1.39495 41.2793 6.38862 43.2686 14.6845 43.2686C14.8738 43.2686 15.0685 43.2631 15.2641 43.2631C23.0038 43.1772 32.7674 41.4513 42.7433 38.3954C52.7249 35.3455 61.7833 31.3152 68.2446 27.0494C75.4628 22.2907 78.6503 17.7328 77.4694 13.8687ZM17.2168 26.2669C17.8553 14.0259 27.9906 4.24488 40.2462 4.01732C52.5359 3.78916 62.7478 13.0492 64.0478 24.9457C62.581 25.8292 61.0026 26.699 59.3229 27.5481C59.3229 27.5387 59.3235 27.5291 59.3235 27.5196C59.3235 24.88 58.7762 22.3717 57.7882 20.0982C57.2039 18.754 55.3079 18.6503 54.5985 19.9329C53.1406 22.569 50.2416 24.2976 46.9654 24.0574C43.0506 23.7705 39.8694 20.6031 39.5684 16.6893C39.3931 14.4103 40.1689 12.3134 41.5408 10.7543C42.1813 10.0264 41.6892 8.88738 40.7198 8.88679H40.6905C30.3991 8.88679 22.0574 17.2285 22.0574 27.5198C22.0574 31.5465 23.3391 35.2681 25.5141 38.3182C23.6726 38.6057 21.8894 38.8278 20.1762 38.9834C18.0815 35.2522 16.9753 30.897 17.2168 26.2669ZM37.4694 27.8714C37.2648 25.9186 38.786 24.2744 40.6905 24.2744C42.4794 24.2744 43.93 25.7251 43.93 27.5194C43.93 29.4351 42.2665 30.9624 40.3057 30.7364C38.824 30.5658 37.6248 29.3547 37.4694 27.8714Z" fill="url(#paint0_linear_30_404)"/>
<defs>
<linearGradient id="paint0_linear_30_404" x1="38.8548" y1="0" x2="38.8548" y2="43.2686" gradientUnits="userSpaceOnUse">
<stop stop-color="#FF1B30"/>
<stop offset="1" stop-color="#FF9313"/>
</linearGradient>
</defs>
</svg>
